<svg id="logo-colored" xmlns="http://www.w3.org/2000/svg" width="150" height="55.388" viewBox="0 0 150 55.388">
  <path id="Path_1" data-name="Path 1" d="M527.674,193.92a5.558,5.558,0,0,0,4.166-5.633c0-3.922-2.789-6.172-7.651-6.172h-8.647v24.379h8.614c5.233,0,8.235-2.388,8.235-6.55a5.883,5.883,0,0,0-4.717-6.024m-10.413.849h6.825c4.163,0,6.551,1.873,6.551,5.14,0,3.249-2.326,5.038-6.551,5.038h-6.825Zm0-1.547v-9.559h6.825c3.891,0,6.034,1.666,6.034,4.694,0,3.092-2.2,4.866-6.034,4.866Z" transform="translate(-477.784 -182.109)" fill="#1b1d36"/>
  <path id="Path_2" data-name="Path 2" d="M560.394,203.852H558.7l-.038.1a6.39,6.39,0,0,1-6.389,4.131c-3.876,0-6.725-3.229-6.823-7.7h14.99v-.6a9.376,9.376,0,0,0-2.5-6.775,8.118,8.118,0,0,0-5.839-2.354c-4.161,0-8.373,3.218-8.373,9.37,0,5.549,3.593,9.576,8.545,9.576,3.947,0,7.034-2.124,8.056-5.543Zm-1.677-4.952H545.429c.279-3.376,2.623-6.74,6.643-6.74,3.77,0,6.425,2.7,6.646,6.74" transform="translate(-486.777 -184.831)" fill="#1b1d36"/>
  <rect id="Rectangle_1" data-name="Rectangle 1" width="1.685" height="24.379" transform="translate(76.787 0.007)" fill="#1b1d36"/>
  <rect id="Rectangle_2" data-name="Rectangle 2" width="1.685" height="24.379" transform="translate(82.246 0.007)" fill="#1b1d36"/>
  <path id="Path_3" data-name="Path 3" d="M523.743,227.084h-8.2v24.379H517.3v-9.091h6.413c5.058,0,8.2-3.384,8.2-7.913,0-4.549-3.13-7.376-8.167-7.376m6.378,7.376a6.048,6.048,0,0,1-6.446,6.331H517.3V228.667h6.379c3.976,0,6.446,2.219,6.446,5.793" transform="translate(-477.784 -196.454)" fill="#1b1d36"/>
  <path id="Path_4" data-name="Path 4" d="M554.9,254.025c-.1-2.851-.1-3.7-.1-4.258v-7.8c0-4.092-2.4-6.346-6.756-6.346-3.532,0-5.96,1.928-6.67,4.772h1.721A4.733,4.733,0,0,1,548,237.1c3.363,0,5.14,1.682,5.14,4.867v.829l-2.654.428c-5.763.879-10.172,1.888-10.172,6.135,0,3.6,3.186,5.21,6.344,5.21a6.907,6.907,0,0,0,6.527-3.737l.061,3.359H554.9Zm-1.753-7.559c0,3.96-2.522,6.619-6.275,6.619-2.245,0-4.865-.995-4.865-3.8,0-3.032,3.286-3.964,11.14-4.983Z" transform="translate(-485.687 -199.175)" fill="#1b1d36"/>
  <path id="Path_5" data-name="Path 5" d="M574.044,236.159v1.617c-.52-.031-.753-.031-1.017-.031-2.078,0-5.173,1.59-5.173,5.966v10.575H566.17V235.931h1.684v3.614a7.321,7.321,0,0,1,1.281-1.818,5.527,5.527,0,0,1,4.031-1.63c.219,0,.39.018.6.035.08.014.17.018.273.027" transform="translate(-493.934 -199.276)" fill="#1b1d36"/>
  <path id="Path_6" data-name="Path 6" d="M582.52,227.186h-1.651v20.545c0,2.723,1.24,3.834,4.281,3.834,1,0,1.72-.031,2.486-.062l.317-.013v-1.48l-.162.008c-.684.034-1.479.034-2.4.034-2.2,0-2.871-.59-2.871-2.527V234.619h5.432V233.14H582.52Z" transform="translate(-498.623 -196.486)" fill="#1b1d36"/>
  <path id="Path_7" data-name="Path 7" d="M603.162,235.618a6.788,6.788,0,0,0-6.1,3.453V235.83h-1.685v18.355h1.685v-10.71c0-4.335,3.021-6.31,5.828-6.31,3.293,0,5.106,2.021,5.106,5.691v11.329h1.686v-11.5c0-4.491-2.376-7.066-6.517-7.066" transform="translate(-503.249 -199.176)" fill="#1b1d36"/>
  <path id="Path_8" data-name="Path 8" d="M629,235.341c-4.161,0-8.374,3.218-8.374,9.37,0,5.549,3.594,9.576,8.545,9.576,3.947,0,7.033-2.124,8.057-5.543l.059-.2H635.6l-.039.1a6.389,6.389,0,0,1-6.389,4.131c-3.876,0-6.726-3.229-6.823-7.7h14.99v-.6a9.375,9.375,0,0,0-2.5-6.775A8.118,8.118,0,0,0,629,235.341m6.611,8.252H622.326c.279-3.376,2.623-6.74,6.643-6.74,3.77,0,6.424,2.7,6.646,6.74" transform="translate(-511.306 -199.087)" fill="#1b1d36"/>
  <path id="Path_9" data-name="Path 9" d="M657.11,236.178a6.975,6.975,0,0,0-1.12,1.568H655.9c-2.078,0-5.174,1.59-5.174,5.966v10.576h-1.689V235.932h1.689v3.615a7.421,7.421,0,0,1,1.28-1.819,5.525,5.525,0,0,1,4.032-1.63c.22,0,.39.018.605.035.1.014.206.022.336.031Z" transform="translate(-520.367 -199.276)" fill="#1b1d36"/>
  <path id="Path_10" data-name="Path 10" d="M668.1,244.322l-2.166-.481c-2.821-.648-3.972-1.571-3.972-3.184,0-1.976,2.046-3.525,4.659-3.525,2.539,0,4.12,1.267,4.677,3.259h1.673c-.558-2.865-2.842-4.77-6.316-4.77-3.6,0-6.31,2.209-6.31,5.14,0,2.343,1.634,3.812,5.141,4.621l2.166.481c3.145.7,4.487,1.764,4.487,3.562,0,2.516-2.576,3.663-4.969,3.663-3.013,0-5.368-1.8-5.727-4.371l-.018-.133h-1.649l.02.172c.405,3.475,3.368,5.81,7.375,5.81,3.289,0,6.619-1.8,6.619-5.243,0-2.548-1.809-4.136-5.691-5" transform="translate(-523.795 -199.176)" fill="#1b1d36"/>
  <path id="Path_11" data-name="Path 11" d="M460.1,237.138h28.31V182.106H460.1Zm26.456-1.914a8,8,0,0,1-7.949-7.2h8.218v7.186c-.089,0-.178.011-.269.011m-24.871-11.95h25.14v3.169h-25.14Zm25.14-1.585h-25.14v-2.561c.46-.384.909-.753,1.341-1.1,4.369-3.547,7.007-5.688,6.9-17.022-.078-8.481,2.83-14.478,5.611-17.311h11.286Zm-13.385-38c-2.675,3.368-5.172,9.325-5.1,17.326.1,10.569-2.046,12.31-6.316,15.777l-.343.28V183.691Zm-11.756,44.336h15.33a9.576,9.576,0,0,0,4.823,7.527H461.683Z" transform="translate(-460.098 -182.106)" fill="#ea7600"/>
</svg>
