<svg xmlns="http://www.w3.org/2000/svg" width="91.464" height="71.406" viewBox="0 0 91.464 71.406">
  <g id="Group_11701" data-name="Group 11701" transform="translate(-205.44 -836.861)">
    <g id="Group_414" data-name="Group 414" transform="translate(205.44 836.861)">
      <path id="Path_15" data-name="Path 15" d="M296.712,893.609V870.515h-7.6l-4.637,7.516-4.638-7.516h-7.6v23.093h7.51v-10.9l4.141,6.321.5.836.543-.836,4.172-6.379v10.961Zm.191-47.2v-.077c0-5.964-4.395-9.466-11.213-9.466H272.245V863.8h7.474v-7.7h5.586c6.7,0,11.6-3.347,11.6-9.7m-7.474.346c0,2.116-1.619,3.5-4.278,3.5h-5.433v-7.116h5.392c2.7,0,4.318,1.23,4.318,3.537Zm-22.194,61.516-17.468-25.5c9.091-3.368,15.324-10.61,15.324-22.136v-.2c0-14.69-10.113-23.566-26.967-23.566H205.44v71.406h15.731V885.416h12.357l15.321,22.851Zm-18.078-46.823c0,6.019-4.393,10.1-12.053,10.1H221.171v-20.5H236.8c7.661,0,12.36,3.469,12.36,10.2Zm47.555,38.966h-24.49v7.857h24.49Z" transform="translate(-205.44 -836.861)" fill="#3e4849"/>
    </g>
  </g>
</svg>
